<svg width="262" height="81" viewBox="0 0 262 81" fill="none" xmlns="http://www.w3.org/2000/svg">
<path d="M75.4 23C77.32 23 79.1333 23.3733 80.84 24.12C82.5467 24.84 84.0267 25.84 85.28 27.12C86.56 28.3733 87.56 29.8533 88.28 31.56C89.0267 33.2667 89.4 35.08 89.4 37C89.4 38.92 89.0267 40.7333 88.28 42.44C87.56 44.1467 86.56 45.64 85.28 46.92C84.0267 48.1733 82.5467 49.1733 80.84 49.92C79.1333 50.64 77.32 51 75.4 51H73.08L70.44 46.12H75.4C76.5467 46.12 77.6267 45.8933 78.64 45.44C79.68 44.9867 80.5733 44.36 81.32 43.56C82.0933 42.7333 82.6933 41.76 83.12 40.64C83.5733 39.52 83.8 38.3067 83.8 37C83.8 35.72 83.5733 34.52 83.12 33.4C82.6933 32.28 82.0933 31.32 81.32 30.52C80.5733 29.6933 79.68 29.0533 78.64 28.6C77.6267 28.12 76.5467 27.88 75.4 27.88H69V51H63.4V23H75.4ZM91.5984 51V31H96.9184V51H91.5984ZM91.5984 23H96.9184V27.68H91.5984V23ZM121.013 31V48.72C120.933 50.2133 120.599 51.6 120.013 52.88C119.426 54.1867 118.639 55.3067 117.653 56.24C116.693 57.2 115.559 57.9467 114.253 58.48C112.946 59.04 111.559 59.32 110.093 59.32C108.119 59.32 106.279 58.8267 104.573 57.84C102.893 56.88 101.559 55.56 100.573 53.88L100.533 53.8L100.573 53.76L104.973 51.84C105.239 52.32 105.573 52.7333 105.973 53.08C106.399 53.4533 106.839 53.7467 107.293 53.96C107.773 54.2 108.253 54.3733 108.733 54.48C109.239 54.6133 109.719 54.68 110.173 54.68C110.866 54.68 111.546 54.5333 112.213 54.24C112.879 53.9467 113.466 53.52 113.973 52.96C114.506 52.4 114.919 51.7333 115.213 50.96C115.533 50.1867 115.693 49.32 115.693 48.36V41.04C115.693 40.2667 115.533 39.5467 115.213 38.88C114.919 38.1867 114.506 37.6 113.973 37.12C113.466 36.6133 112.866 36.2133 112.173 35.92C111.506 35.6267 110.786 35.48 110.013 35.48C109.239 35.48 108.506 35.6267 107.813 35.92C107.146 36.2133 106.559 36.6133 106.053 37.12C105.546 37.6 105.146 38.1867 104.853 38.88C104.559 39.5467 104.413 40.2667 104.413 41.04C104.413 41.8133 104.559 42.5333 104.853 43.2C105.146 43.8667 105.546 44.4533 106.053 44.96C106.559 45.4667 107.146 45.8667 107.813 46.16C108.506 46.4533 109.239 46.6 110.013 46.6C110.839 46.6 111.559 46.4533 112.173 46.16H112.213L112.253 46.2L114.253 49.76L114.213 49.8C112.906 50.8667 111.293 51.4 109.373 51.4C107.933 51.4 106.573 51.1333 105.293 50.6C104.013 50.04 102.906 49.2933 101.973 48.36C101.039 47.4267 100.293 46.3333 99.7328 45.08C99.1995 43.8 98.9328 42.4533 98.9328 41.04C98.9328 39.6 99.1995 38.2533 99.7328 37C100.293 35.7467 101.039 34.6533 101.973 33.72C102.906 32.7867 104.013 32.0533 105.293 31.52C106.573 30.96 107.933 30.68 109.373 30.68C112.093 30.68 114.199 31.7067 115.693 33.76V31H121.013ZM123.395 51V31H128.715V51H123.395ZM123.395 23H128.715V27.68H123.395V23ZM145.05 33.08V37.52H142.09L139.61 33.08H145.05ZM138.93 44.16C138.93 44.7733 139.143 45.2933 139.57 45.72C140.023 46.1467 140.556 46.36 141.17 46.36H145.05V51H141.17C140.13 51 139.143 50.8133 138.21 50.44C137.303 50.04 136.503 49.5067 135.81 48.84C135.143 48.1467 134.61 47.3467 134.21 46.44C133.81 45.5333 133.61 44.56 133.61 43.52V37.52H130.73V33.08H133.61V25.84H138.93V44.16ZM156.052 30.68C157.465 30.68 158.798 30.96 160.052 31.52C161.305 32.0533 162.398 32.7867 163.332 33.72C164.265 34.6533 164.998 35.7467 165.532 37C166.092 38.2533 166.372 39.6 166.372 41.04C166.372 41.8133 166.292 42.56 166.132 43.28L166.092 43.36H155.932L153.372 39.28H160.972C160.598 38.16 159.972 37.24 159.092 36.52C158.238 35.8 157.225 35.44 156.052 35.44C155.332 35.44 154.652 35.5867 154.012 35.88C153.372 36.1733 152.812 36.5733 152.332 37.08C151.878 37.56 151.518 38.1467 151.252 38.84C150.985 39.5067 150.852 40.24 150.852 41.04C150.852 41.6533 150.972 42.2933 151.212 42.96C151.452 43.6 151.798 44.1867 152.252 44.72C152.705 45.2533 153.252 45.7067 153.892 46.08C154.532 46.4267 155.252 46.6 156.052 46.6C156.772 46.6 157.425 46.5067 158.012 46.32C158.625 46.1067 159.198 45.6533 159.732 44.96L159.772 44.92L159.852 44.96L164.492 47L164.412 47.08C163.452 48.4133 162.225 49.4533 160.732 50.2C159.265 50.9467 157.705 51.32 156.052 51.32C154.612 51.32 153.252 51.0533 151.972 50.52C150.718 49.9867 149.625 49.2533 148.692 48.32C147.758 47.3867 147.012 46.2933 146.452 45.04C145.918 43.7867 145.652 42.4533 145.652 41.04C145.652 39.6 145.918 38.2533 146.452 37C147.012 35.7467 147.758 34.6533 148.692 33.72C149.625 32.7867 150.718 32.0533 151.972 31.52C153.252 30.96 154.612 30.68 156.052 30.68ZM176.796 34.44H182.676V38.88H179.276H179.236L176.796 34.44ZM182.676 23V27.68H178.316C177.623 27.68 177.09 27.9467 176.716 28.48C176.343 29.0133 176.156 29.7467 176.156 30.68V51H170.836V38.88H167.956V34.44H170.836V30.44C170.836 29.4267 171.023 28.4667 171.396 27.56C171.796 26.6533 172.33 25.8667 172.996 25.2C173.69 24.5067 174.49 23.9733 175.396 23.6C176.303 23.2 177.276 23 178.316 23H182.676ZM206.164 31V51H200.924V41C200.924 40.2267 200.778 39.5067 200.484 38.84C200.191 38.1733 199.778 37.5867 199.244 37.08C198.738 36.5733 198.138 36.1867 197.444 35.92C196.778 35.6267 196.071 35.48 195.324 35.48C194.551 35.48 193.831 35.6267 193.164 35.92C192.498 36.2133 191.898 36.6133 191.364 37.12C190.858 37.6 190.458 38.1867 190.164 38.88C189.871 39.5467 189.724 40.2667 189.724 41.04C189.724 41.7867 189.871 42.4933 190.164 43.16C190.458 43.8267 190.858 44.4133 191.364 44.92C191.898 45.4267 192.498 45.8267 193.164 46.12C193.831 46.4133 194.551 46.56 195.324 46.56C196.151 46.56 196.858 46.4133 197.444 46.12H197.484V46.2L199.484 49.76L199.444 49.8C198.138 50.8133 196.524 51.32 194.604 51.32C193.191 51.32 191.858 51.0533 190.604 50.52C189.351 49.9867 188.258 49.2533 187.324 48.32C186.391 47.3867 185.644 46.2933 185.084 45.04C184.551 43.7867 184.284 42.4533 184.284 41.04C184.284 39.6 184.551 38.2533 185.084 37C185.644 35.7467 186.391 34.6533 187.324 33.72C188.258 32.7867 189.351 32.0533 190.604 31.52C191.858 30.96 193.191 30.68 194.604 30.68C195.991 30.68 197.204 30.9467 198.244 31.48C199.284 31.9867 200.178 32.7333 200.924 33.72V31H206.164Z" fill="#DC362E"/>
<path d="M34.6951 35.811H30.509V29.6857L34.6951 27.5291V35.811Z" fill="#DC362E"/>
<path d="M34.6951 41.0813H30.509V47.2066L34.6951 49.3633V41.0813Z" fill="#DC362E"/>
<path d="M4.63153 25.2704L0.392746 20L34.6499 27.5291L34.6499 29.7878L34.6499 32.0465L4.63153 25.2704Z" fill="#DC362E"/>
<path d="M4.63278 51.622L0.393997 56.8923L34.6512 49.3633L34.6512 47.1046L34.6512 44.8458L4.63278 51.622Z" fill="#DC362E"/>
<path d="M4.91019 35.811L0.392755 35.811L0.392755 20L4.91019 23.4372L4.91019 35.811Z" fill="#DC362E"/>
<path d="M4.91019 41.0813L0.392755 41.0813L0.392755 56.8923L4.91019 53.4551L4.91019 41.0813Z" fill="#DC362E"/>
</svg>
